<svg xmlns="http://www.w3.org/2000/svg" width="64" height="64" viewBox="0 0 64 64">
  <defs>
    <linearGradient id="bg" x1="0%" y1="0%" x2="100%" y2="100%">
      <stop offset="0%" style="stop-color:#667eea"/>
      <stop offset="100%" style="stop-color:#764ba2"/>
    </linearGradient>
    <linearGradient id="m" x1="0%" y1="0%" x2="100%" y2="100%">
      <stop offset="0%" style="stop-color:#ffffff"/>
      <stop offset="100%" style="stop-color:#e0d4ff"/>
    </linearGradient>
  </defs>
  <rect width="64" height="64" rx="14" fill="url(#bg)"/>
  <g transform="translate(32,30)" fill="url(#m)">
    <!-- M letter shape -->
    <path d="M-20,-16 L-20,16 L-12,16 L-12,-2 L-4,12 L4,12 L12,-2 L12,16 L20,16 L20,-16 L10,-16 L0,6 L-10,-16 Z"/>
  </g>
  <!-- Small star accent -->
  <circle cx="48" cy="12" r="5" fill="#ffd700" opacity="0.9"/>
  <path d="M48,8 L49,11 L52,11 L50,13 L51,16 L48,14 L45,16 L46,13 L44,11 L47,11 Z" fill="#fff5cc"/>
</svg>
